<!DOCTYPE svg PUBLIC "-//W3C//DTD SVG 20010904//EN" "http://www.w3.org/TR/2001/REC-SVG-20010904/DTD/svg10.dtd">
<svg version="1.0" xmlns="http://www.w3.org/2000/svg" width="394px" height="337px" viewBox="0 0 3940 3370" preserveAspectRatio="xMidYMid meet">
<g id="layer101" fill="#010101" stroke="none">
 <path d="M0 1685 l0 -1685 1970 0 1970 0 0 1685 0 1685 -1970 0 -1970 0 0 -1685z"/>
 </g>
<g id="layer102" fill="#ffffff" stroke="none">
 <path d="M0 1685 l0 -1685 1970 0 1970 0 0 1685 0 1685 -1970 0 -1970 0 0 -1685z m3128 158 l-3 -806 -345 -274 -345 -273 -872 0 -873 0 0 805 0 804 348 275 347 275 873 0 872 1 -2 -807z"/>
 <path d="M1460 2335 l0 -235 465 0 464 0 283 221 c156 122 290 227 298 235 12 12 -97 14 -748 14 l-762 0 0 -235z"/>
 <path d="M1101 2321 l-275 -216 274 -3 c150 -1 275 -1 277 1 2 2 2 101 1 219 l-3 215 -274 -216z"/>
 <path d="M2741 2274 l-301 -236 0 -459 0 -459 305 0 305 0 0 695 c0 382 -2 695 -4 695 -1 0 -139 -106 -305 -236z"/>
 <path d="M770 1320 c0 -589 2 -700 14 -693 7 4 144 114 304 243 l291 235 1 458 0 457 -305 0 -305 0 0 -700z"/>
 <path d="M1460 1570 l0 -450 450 0 450 0 0 450 0 450 -450 0 -450 0 0 -450z"/>
 <path d="M1145 814 c-154 -124 -284 -230 -289 -235 -6 -5 290 -9 747 -9 l757 0 0 235 0 235 -468 0 -468 0 -279 -226z"/>
 <path d="M2440 819 c0 -211 1 -220 18 -207 47 34 532 420 532 424 0 2 -124 4 -275 4 l-275 0 0 -221z"/>
 </g>

</svg>